<svg width="36" height="36" viewBox="0 0 36 36" fill="none" xmlns="http://www.w3.org/2000/svg">
<path d="M30 13.5C31.5913 13.5 33.1174 12.8679 34.2426 11.7426C35.3679 10.6174 36 9.0913 36 7.5V6C36 4.4087 35.3679 2.88258 34.2426 1.75736C33.1174 0.632141 31.5913 0 30 0H28.5C26.9087 0 25.3826 0.632141 24.2574 1.75736C23.1321 2.88258 22.5 4.4087 22.5 6V10.5H13.5V6C13.5 4.4087 12.8679 2.88258 11.7426 1.75736C10.6174 0.632141 9.0913 0 7.5 0H6C4.4087 0 2.88258 0.632141 1.75736 1.75736C0.632141 2.88258 0 4.4087 0 6V7.5C0 9.0913 0.632141 10.6174 1.75736 11.7426C2.88258 12.8679 4.4087 13.5 6 13.5H10.5V22.5H6C4.4087 22.5 2.88258 23.1321 1.75736 24.2574C0.632141 25.3826 0 26.9087 0 28.5V30C0 31.5913 0.632141 33.1174 1.75736 34.2426C2.88258 35.3679 4.4087 36 6 36H7.5C9.0913 36 10.6174 35.3679 11.7426 34.2426C12.8679 33.1174 13.5 31.5913 13.5 30V25.5H22.5V30C22.5 31.5913 23.1321 33.1174 24.2574 34.2426C25.3826 35.3679 26.9087 36 28.5 36H30C31.5913 36 33.1174 35.3679 34.2426 34.2426C35.3679 33.1174 36 31.5913 36 30V28.5C36 26.9087 35.3679 25.3826 34.2426 24.2574C33.1174 23.1321 31.5913 22.5 30 22.5H25.5V13.5H30ZM25.5 6C25.5 5.20435 25.8161 4.44129 26.3787 3.87868C26.9413 3.31607 27.7044 3 28.5 3H30C30.7956 3 31.5587 3.31607 32.1213 3.87868C32.6839 4.44129 33 5.20435 33 6V7.5C33 8.29565 32.6839 9.05871 32.1213 9.62132C31.5587 10.1839 30.7956 10.5 30 10.5H25.5V6ZM6 10.5C5.20435 10.5 4.44129 10.1839 3.87868 9.62132C3.31607 9.05871 3 8.29565 3 7.5V6C3 5.20435 3.31607 4.44129 3.87868 3.87868C4.44129 3.31607 5.20435 3 6 3H7.5C8.29565 3 9.05871 3.31607 9.62132 3.87868C10.1839 4.44129 10.5 5.20435 10.5 6V10.5H6ZM10.5 30C10.5 30.7956 10.1839 31.5587 9.62132 32.1213C9.05871 32.6839 8.29565 33 7.5 33H6C5.20435 33 4.44129 32.6839 3.87868 32.1213C3.31607 31.5587 3 30.7956 3 30V28.5C3 27.7044 3.31607 26.9413 3.87868 26.3787C4.44129 25.8161 5.20435 25.5 6 25.5H10.5V30ZM22.5 22.5H13.5V13.5H22.5V22.5ZM25.5 25.5H30C30.7956 25.5 31.5587 25.8161 32.1213 26.3787C32.6839 26.9413 33 27.7044 33 28.5V30C33 30.7956 32.6839 31.5587 32.1213 32.1213C31.5587 32.6839 30.7956 33 30 33H28.5C27.7044 33 26.9413 32.6839 26.3787 32.1213C25.8161 31.5587 25.5 30.7956 25.5 30V25.5Z" fill="#00E0FF"/>
</svg>
