<svg width="66" height="67" viewBox="0 0 66 67" fill="none" xmlns="http://www.w3.org/2000/svg">
<path d="M65.2143 0.919036C64.6274 0.333944 63.7902 0 62.9129 0H3.08912C2.21181 0 1.37466 0.333944 0.787729 0.919036C0.200797 1.50413 -0.0772232 2.28517 0.0185393 3.06345L6.82077 57.7723C6.95669 58.8845 7.83709 59.8146 9.04184 60.121L32.1484 66.0188C32.4264 66.0906 32.7137 66.1264 32.9979 66.1264C33.2821 66.1264 33.5694 66.0906 33.8474 66.0188L56.954 60.121C58.1588 59.8146 59.0361 58.8845 59.1751 57.7723L65.9804 3.06345C66.0793 2.28517 65.8012 1.50413 65.2143 0.919036ZM50.3896 20.5058H22.8038L23.4587 27.5214H49.7255L47.7546 48.248L33.0103 52.4375L32.8651 52.3961L18.2845 48.2425L17.4875 39.7973H24.6295L24.9415 43.0788L33.0875 44.6823L41.0914 43.076L41.9409 34.2086H16.95L15.0162 13.7993H51.0322L50.3896 20.5058Z" fill="#FFA500"/>
</svg>
