<svg width="1042" height="1042" viewBox="0 0 1042 1042" fill="none" xmlns="http://www.w3.org/2000/svg">
<path d="M883.811 1004.78C923.897 1004.78 956.395 972.286 956.395 932.201C956.395 892.115 923.897 859.617 883.811 859.617C843.726 859.617 811.228 892.115 811.228 932.201C811.228 972.286 843.726 1004.78 883.811 1004.78Z" fill="#00E0FF" stroke="#00E0FF" stroke-width="72.5838" stroke-linecap="round" stroke-linejoin="round"/>
<path d="M399.919 1004.78C440.005 1004.78 472.503 972.286 472.503 932.201C472.503 892.115 440.005 859.617 399.919 859.617C359.832 859.617 327.335 892.115 327.335 932.201C327.335 972.286 359.832 1004.78 399.919 1004.78Z" fill="#00E0FF" stroke="#00E0FF" stroke-width="72.5838" stroke-linecap="round" stroke-linejoin="round"/>
<path d="M182.168 133.778H1004.78L908.006 666.06H278.946L182.168 133.778ZM182.168 133.778C174.103 101.519 133.778 37 37 37" stroke="#00E0FF" stroke-width="72.5838" stroke-linecap="round" stroke-linejoin="round"/>
<path d="M908.006 666.06H278.946H193.334C106.993 666.06 61.1946 703.862 61.1946 762.839C61.1946 821.815 106.993 859.617 193.334 859.617H883.811" stroke="#00E0FF" stroke-width="72.5838" stroke-linecap="round" stroke-linejoin="round"/>
</svg>
