<svg width="24" height="24" viewBox="0 0 24 24" fill="none" xmlns="http://www.w3.org/2000/svg">
<path fill-rule="evenodd" clip-rule="evenodd" d="M12.021 2.01611C17.5325 2.01611 22 6.48361 22 11.9951C22 17.5061 17.5325 21.9741 12.021 21.9741C6.50999 21.9741 2.04199 17.5066 2.04199 11.9951C2.04249 6.48361 6.50999 2.01611 12.021 2.01611Z" fill="#F06292"/>
<path d="M18.2804 6.2869C17.8284 4.5144 14.8899 3.9319 12.1089 4.9199C10.4539 5.5079 8.66192 6.4309 7.37342 7.6359C5.84142 9.0689 5.59742 10.3159 5.69792 10.8369C6.05292 12.6754 8.57242 13.8774 9.60792 14.7694V14.7749C9.30242 14.9254 7.06742 16.0564 6.54442 17.2129C5.99242 18.4329 6.63242 19.3084 7.05592 19.4264C8.36842 19.7914 9.71492 19.1349 10.4389 18.0554C11.1374 17.0134 11.0794 15.6684 10.7759 14.9989C11.1944 14.8884 11.6829 14.8389 12.3029 14.9114C14.0534 15.1159 14.3969 16.2089 14.3309 16.6664C14.2654 17.1239 13.8979 17.3754 13.7754 17.4514C13.6524 17.5274 13.6154 17.5539 13.6254 17.6099C13.6404 17.6919 13.6969 17.6889 13.8019 17.6714C13.9459 17.6469 14.7209 17.2994 14.7544 16.4549C14.7964 15.3829 13.7694 14.1839 11.9504 14.2149C11.2014 14.2279 10.7304 14.2989 10.3899 14.4259C10.3649 14.3974 10.3389 14.3689 10.3129 14.3404C9.18842 13.1404 7.10942 12.2919 7.19742 10.6789C7.22942 10.0924 7.43342 8.5484 11.1919 6.6754C14.2709 5.1409 16.7359 5.5634 17.1619 6.4989C17.7704 7.8359 15.8444 10.3204 12.6469 10.6789C11.4284 10.8154 10.7869 10.3434 10.6274 10.1674C10.4594 9.9824 10.4344 9.9739 10.3719 10.0089C10.2699 10.0654 10.3344 10.2289 10.3719 10.3264C10.4674 10.5749 10.8594 11.0154 11.5269 11.2349C12.1144 11.4279 13.5449 11.5334 15.2749 10.8644C17.2119 10.1144 18.7249 8.0294 18.2804 6.2869ZM10.0379 15.3189C10.1829 15.8559 10.1669 16.3569 10.0174 16.8104C10.0009 16.8609 9.98242 16.9104 9.96242 16.9599C9.94242 17.0089 9.92092 17.0579 9.89792 17.1059C9.78242 17.3459 9.62692 17.5704 9.43692 17.7779C8.85692 18.4104 8.04692 18.6494 7.69992 18.4479C7.32492 18.2304 7.51292 17.3389 8.18492 16.6279C8.90792 15.8634 9.94842 15.3719 9.94842 15.3719L9.94692 15.3689C9.97692 15.3524 10.0074 15.3359 10.0379 15.3189Z" fill="white"/>
</svg>
