<svg width="24" height="24" viewBox="0 0 24 24" fill="none" xmlns="http://www.w3.org/2000/svg">
<path d="M21 3H3V21H21V3Z" fill="#1976D2"/>
<path d="M13.745 11H7.11353V12.632H9.49202V20H11.3765V12.632H13.745V11Z" fill="white"/>
<path d="M19.597 13.0421C19.597 13.0421 18.7035 12.4461 17.6935 12.4461C16.6835 12.4461 16.32 12.9261 16.32 13.4391C16.32 14.7631 20.0105 14.6306 20.0105 17.2951C20.0105 21.3996 14.3835 19.5791 14.3835 19.5791V17.6101C14.3835 17.6101 15.4595 18.4211 16.75 18.4211C18.0405 18.4211 17.9915 17.5771 17.9915 17.4611C17.9915 16.2366 14.334 16.2366 14.334 13.5221C14.334 9.83162 19.663 11.2876 19.663 11.2876L19.597 13.0421Z" fill="white"/>
</svg>
